<?xml version="1.0" encoding="UTF-8"?>
<svg id="Layer_1" data-name="Layer 1" xmlns="http://www.w3.org/2000/svg" viewBox="0 0 243.72 131.04">
  <defs>
    <style>
      .cls-1 {
        fill: #324044;
      }
    </style>
  </defs>
  <path class="cls-1" d="m83.7,102.15c-4.8,1.98-10.44,2.97-16.92,2.97-5.52,0-10.56-.93-15.12-2.79-4.56-1.86-8.52-4.56-11.88-8.1-3.36-3.54-5.94-7.74-7.74-12.6-1.8-4.86-2.7-10.29-2.7-16.29s.9-11.1,2.7-16.02c1.8-4.92,4.38-9.12,7.74-12.6,3.36-3.48,7.32-6.15,11.88-8.01,4.56-1.86,9.6-2.79,15.12-2.79,6.24,0,11.73,1.02,16.47,3.06,4.74,2.04,8.73,4.86,11.97,8.46l19.08-19.26c-5.88-5.64-12.75-10.08-20.61-13.32-7.86-3.24-16.83-4.86-26.91-4.86s-18.42,1.65-26.46,4.95c-8.04,3.3-15.09,7.89-21.15,13.77-6.06,5.88-10.77,12.81-14.13,20.79C1.68,47.49,0,56.1,0,65.34s1.68,17.85,5.04,25.83c3.36,7.98,8.07,14.97,14.13,20.97,6.06,6,13.14,10.65,21.24,13.95,8.1,3.3,16.89,4.95,26.37,4.95,10.44,0,19.62-1.59,27.54-4.77s14.88-7.65,20.88-13.41l-19.26-19.26c-3.36,3.72-7.44,6.57-12.24,8.55Z"/>
  <path class="cls-1" d="m213.66,129.06h30.06L193.86,1.98h-25.74l-50.22,127.08h29.34l8.44-22.86h49.73l8.25,22.86Zm-49.47-45.9l16.65-45.1,16.27,45.1h-32.92Z"/>
</svg>