<?xml version="1.0" encoding="UTF-8"?>
<svg id="Layer_1" data-name="Layer 1" xmlns="http://www.w3.org/2000/svg" viewBox="0 0 68.24 68.24">
  <defs>
    <style>
      .cls-1 {
        fill: #e6e6e6;
      }

      .cls-2 {
        fill: #999;
      }
    </style>
  </defs>
  <circle class="cls-2" cx="34.12" cy="34.12" r="34.12"/>
  <path class="cls-1" d="m34.12,0C15.28,0,0,15.28,0,34.12c0,11.83,6.02,22.25,15.17,28.37v-3.99c0-10.39,8.42-18.81,18.81-18.81s18.81,8.42,18.81,18.81v4.18c9.31-6.09,15.46-16.61,15.46-28.56C68.24,15.28,52.97,0,34.12,0Zm-.06,31.41c-5.09,0-9.22-4.13-9.22-9.22s4.13-9.22,9.22-9.22,9.22,4.13,9.22,9.22-4.13,9.22-9.22,9.22Z"/>
</svg>